HIERARCHY
ROOT Hips
{
    OFFSET 0.000000 0.000000 0.000000
    CHANNELS 6 Xposition Yposition Zposition Zrotation Xrotation Yrotation
    JOINT Spine
    {
        OFFSET -0.000000 14.517291 0.000000
        CHANNELS 3 Zrotation Xrotation Yrotation
        JOINT Spine1
        {
            OFFSET -0.000000 37.558300 0.000000
            CHANNELS 3 Zrotation Xrotation Yrotation
            JOINT Neck
            {
                OFFSET -0.000000 37.404057 3.400369
                CHANNELS 3 Zrotation Xrotation Yrotation
                JOINT Head
                {
                    OFFSET -0.000000 24.785618 -3.540803
                    CHANNELS 3 Zrotation Xrotation Yrotation
                    End Site
                    {
                        OFFSET -0.000000 35.408028 0.000000
                    }
                }
            }
            JOINT LeftShoulder
            {
                OFFSET 6.992933 33.973492 -0.192664
                CHANNELS 3 Zrotation Xrotation Yrotation
                JOINT LeftArm
                {
                    OFFSET 21.527611 0.000000 0.000000
                    CHANNELS 3 Zrotation Xrotation Yrotation
                    JOINT LeftForeArm
                    {
                        OFFSET 56.353916 0.000000 0.000000
                        CHANNELS 3 Zrotation Xrotation Yrotation
                        JOINT LeftHand
                        {
                            OFFSET 47.774071 0.000000 0.000000
                            CHANNELS 3 Zrotation Xrotation Yrotation
                            End Site
                            {
                                OFFSET 26.556021 0.000000 0.000000
                            }
                        }
                    }
                }
            }
            JOINT RightShoulder
            {
                OFFSET -7.065357 33.973492 -0.192664
                CHANNELS 3 Zrotation Xrotation Yrotation
                JOINT RightArm
                {
                    OFFSET -21.527611 0.000000 0.000000
                    CHANNELS 3 Zrotation Xrotation Yrotation
                    JOINT RightForeArm
                    {
                        OFFSET -56.353916 0.000000 0.000000
                        CHANNELS 3 Zrotation Xrotation Yrotation
                        JOINT RightHand
                        {
                            OFFSET -47.774071 0.000000 0.000000
                            CHANNELS 3 Zrotation Xrotation Yrotation
                            End Site
                            {
                                OFFSET -26.556021 0.000000 0.000000
                            }
                        }
                    }
                }
            }
        }
    }
    JOINT LeftUpLeg
    {
        OFFSET 17.704014 0.000000 0.000000
        CHANNELS 3 Zrotation Xrotation Yrotation
        JOINT LeftLeg
        {
            OFFSET -0.000000 -81.181816 0.000000
            CHANNELS 3 Zrotation Xrotation Yrotation
            JOINT LeftFoot
            {
                OFFSET -0.000000 -62.821102 0.000000
                CHANNELS 3 Zrotation Xrotation Yrotation
                JOINT LeftToeBase
                {
                    OFFSET -0.000000 -11.507608 26.556021
                    CHANNELS 3 Zrotation Xrotation Yrotation
                    End Site
                    {
                        OFFSET -0.000000 0.000000 7.081605
                    }
                }
            }
        }
    }
    JOINT RightUpLeg
    {
        OFFSET -17.704014 0.000000 0.000000
        CHANNELS 3 Zrotation Xrotation Yrotation
        JOINT RightLeg
        {
            OFFSET -0.000000 -81.181816 0.000000
            CHANNELS 3 Zrotation Xrotation Yrotation
            JOINT RightFoot
            {
                OFFSET -0.000000 -62.821102 0.000000
                CHANNELS 3 Zrotation Xrotation Yrotation
                JOINT RightToeBase
                {
                    OFFSET -0.000000 -11.507608 26.556021
                    CHANNELS 3 Zrotation Xrotation Yrotation
                    End Site
                    {
                        OFFSET -0.000000 0.000000 7.081605
                    }
                }
            }
        }
    }
}
MOTION
Frames:    10
Frame Time:    0.008333
-22.725857    164.288177    -79.816574    -8.398690    -22.836033    42.771938    3.405557    5.112597    -4.688154    4.994383    8.443825    -1.882581    20.734476    -1.399238    -1.362986    0.548942    0.031397    -4.717105    12.519459    6.879788    -22.021755    -36.330292    22.139168    -38.255917    -1.181376    -34.790165    -110.499931    -3.570540    -35.875454    -11.914667    6.925914    4.516198    -9.149839    23.813921    -7.336102    34.853508    4.211576    8.531400    128.367599    -5.207106    -1.563195    30.075172    25.050774    -0.020779    5.709337    -5.093542    35.558846    -16.899786    8.483438    -20.526276    35.651707    0.000000    0.000000    0.000000    -87.392685    -45.206295    -53.984108    8.762607    16.803785    -9.186836    20.528376    13.395210    -36.048046    0.000000    0.000000    0.000000    
-22.730299    164.285568    -79.798271    -8.402225    -22.841162    42.797920    3.410341    5.113842    -4.683768    4.988074    8.451296    -1.880901    20.760120    -1.388817    -1.365149    0.516391    -0.013795    -4.726109    12.525853    6.885033    -22.018555    -36.318737    22.122139    -38.277462    -1.179277    -34.803207    -110.479195    -3.573006    -35.885590    -11.899242    6.925287    4.520819    -9.162854    23.775360    -7.351199    34.746109    4.233782    8.631353    128.183975    -5.306610    -1.514106    30.361597    25.071186    -0.036714    5.705978    -5.091854    35.574535    -16.906458    8.464761    -20.539038    35.630394    0.000000    0.000000    0.000000    -87.355034    -45.176861    -53.957710    8.737020    16.759510    -9.300347    20.517941    13.428558    -35.955276    0.000000    0.000000    0.000000    
-22.735701    164.277969    -79.775192    -8.399237    -22.857649    42.817394    3.402456    5.130039    -4.671713    4.996481    8.464080    -1.878140    21.076035    -1.403700    -1.299051    0.090333    -0.038455    -4.773395    12.544109    6.888491    -22.013115    -36.322376    22.119026    -38.311432    -1.134881    -34.846779    -110.435844    -3.617479    -35.871490    -11.915746    6.928031    4.499659    -9.182729    23.732965    -7.363027    34.600693    4.268332    8.757636    127.976097    -5.404843    -1.459247    30.709099    25.099377    -0.036223    5.717296    -5.091721    35.595245    -16.917902    8.473315    -20.554832    35.610149    0.000000    0.000000    0.000000    -87.306786    -45.159447    -53.924805    8.703989    16.731438    -9.305034    20.522387    13.432221    -35.941944    0.000000    0.000000    0.000000    
-22.731791    164.265045    -79.757942    -8.390924    -22.858118    42.841717    3.405128    5.139241    -4.668869    4.987666    8.461055    -1.876217    20.786938    -1.391318    -1.360938    0.484335    -0.070031    -4.731007    12.533457    6.892913    -22.012337    -36.316311    22.097986    -38.306370    -1.090741    -34.782703    -110.347992    -3.552653    -35.755207    -12.107211    6.929728    4.514832    -9.209350    23.710979    -7.444798    34.479210    4.329060    8.987604    127.757156    -5.534050    -1.364658    31.062716    25.103045    -0.041253    5.739764    -5.077778    35.612667    -16.921358    8.476691    -20.578087    35.569164    0.000000    0.000000    0.000000    -87.278999    -45.125065    -53.898533    8.688679    16.678354    -9.338240    20.534138    13.433661    -35.938831    0.000000    0.000000    0.000000    
-22.719240    164.249557    -79.735695    -8.368406    -22.872847    42.862827    3.391142    5.156614    -4.656538    4.986843    8.476111    -1.872823    21.107637    -1.387191    -1.304555    0.055686    -0.100413    -4.786161    12.549615    6.898670    -22.021849    -36.338894    22.077698    -38.309944    -1.072241    -34.773293    -110.327843    -3.574421    -35.724377    -12.016218    6.949962    4.513491    -9.224883    23.662075    -7.520274    34.329460    4.395104    9.225317    127.487511    -5.675845    -1.268239    31.479166    25.103462    -0.019893    5.765006    -5.054688    35.628944    -16.943274    8.495265    -20.603529    35.547733    0.000000    0.000000    0.000000    -87.222153    -45.097633    -53.863052    8.649250    16.621761    -9.343253    20.537460    13.440021    -35.910267    0.000000    0.000000    0.000000    
-22.704325    164.228180    -79.718163    -8.338569    -22.878447    42.885757    3.385971    5.202380    -4.638545    4.985756    8.465714    -1.865835    20.778656    -1.436952    -1.367902    0.495025    -0.082311    -4.743808    12.536608    6.872321    -22.001991    -36.353489    22.083538    -38.313465    -1.165451    -34.793770    -110.451469    -3.531151    -35.867367    -11.730063    6.931096    4.509589    -9.309830    23.668037    -7.554947    34.241413    4.453254    9.397929    127.181641    -5.754764    -1.198311    31.926218    25.089643    0.000454    5.774141    -5.043939    35.642967    -16.939955    8.524187    -20.624462    35.520058    0.000000    0.000000    0.000000    -87.180672    -45.056225    -53.798016    8.647278    16.539501    -9.375909    20.531961    13.454304    -35.933956    0.000000    0.000000    0.000000    
-22.689486    164.198654    -79.699028    -8.310650    -22.868780    42.902092    3.363482    5.213366    -4.627717    4.978173    8.479284    -1.862496    21.053209    -1.478668    -1.305624    0.116050    -0.055335    -4.786906    12.502418    6.765860    -22.074148    -36.449623    22.072008    -38.141491    -1.182534    -34.715813    -110.487572    -3.479836    -35.813175    -11.816954    6.940516    4.506606    -9.354255    23.637770    -7.581628    34.085258    4.504525    9.538373    126.858818    -5.823339    -1.143138    32.435432    25.065851    0.008226    5.778333    -5.040420    35.668190    -16.949142    8.543657    -20.662855    35.523113    0.000000    0.000000    0.000000    -87.168022    -45.029964    -53.784821    8.623501    16.470264    -9.407980    20.554020    13.455878    -35.954731    0.000000    0.000000    0.000000    
-22.672562    164.167252    -79.686401    -8.283566    -22.845112    42.911060    3.345902    5.166043    -4.641679    4.950235    8.526582    -1.867860    21.032755    -1.387113    -1.302954    0.148815    -0.131503    -4.758659    12.464069    6.771095    -22.090385    -36.452553    22.048258    -38.068844    -1.170618    -34.726391    -110.451767    -3.586104    -35.798012    -11.894170    6.948336    4.528302    -9.288100    23.620724    -7.660901    33.889786    4.578975    9.738489    126.400406    -5.900729    -1.055582    33.050201    25.028137    0.004259    5.787760    -5.035734    35.696865    -16.943724    8.561540    -20.690407    35.518585    0.000000    0.000000    0.000000    -87.168739    -45.012005    -53.799427    8.579399    16.399832    -9.415776    20.572952    13.476085    -35.966789    0.000000    0.000000    0.000000    
-22.653347    164.137451    -79.675797    -8.258847    -22.821957    42.921608    3.328596    5.193743    -4.619199    4.935915    8.483369    -1.857375    21.035107    -1.424561    -1.311946    0.146539    -0.068578    -4.775889    12.456591    6.784025    -22.095907    -36.480385    22.031164    -38.059502    -1.193525    -34.669018    -110.451996    -3.576119    -35.769093    -11.895486    6.967828    4.527401    -9.360533    23.601288    -7.687655    33.713932    4.654932    9.920650    125.947815    -5.951140    -0.984573    33.707836    24.994007    -0.005457    5.769867    -5.052320    35.736523    -16.935423    8.597550    -20.717073    35.544022    0.000000    0.000000    0.000000    -87.164848    -44.988251    -53.826225    8.538246    16.321053    -9.425580    20.583776    13.500236    -35.987114    0.000000    0.000000    0.000000    
-22.634098    164.103836    -79.665794    -8.237523    -22.794027    42.921692    3.314294    5.173127    -4.611820    4.931302    8.527047    -1.856786    20.941854    -1.480814    -1.311928    0.231054    -0.021742    -4.758900    12.422912    6.754547    -22.035992    -36.465454    22.066833    -38.069855    -1.198281    -34.675781    -110.450546    -3.606776    -35.778427    -11.909813    6.930516    4.499888    -9.415481    23.649101    -7.769636    33.583126    4.770648    10.202650    125.388580    -6.018210    -0.877383    34.443714    24.961586    -0.015112    5.756597    -5.075653    35.774467    -16.942432    8.634534    -20.747990    35.585468    0.000000    0.000000    0.000000    -87.169327    -44.977104    -53.852512    8.490584    16.244051    -9.425376    20.626181    13.511431    -36.026249    0.000000    0.000000    0.000000    
